<svg xmlns="http://www.w3.org/2000/svg" aria-hidden="true" style="width: 0; height: 0; position: absolute;"><symbol id="icon-arrow-pagination" viewBox="0 0 20 20" preserveAspectRatio="xMidYMid slice"><path d="M15.833 10H4.167m0 0L10 15.833M4.167 10 10 4.167"></path></symbol><symbol id="icon-arrow-slider" viewBox="0 0 24 24" preserveAspectRatio="xMidYMid slice"><path d="m14.296 4.454 6.75 6.75a1.124 1.124 0 0 1 0 1.594l-6.75 6.75a1.127 1.127 0 0 1-1.594-1.594l4.83-4.829H3.75a1.125 1.125 0 1 1 0-2.25h13.781l-4.83-4.829a1.127 1.127 0 1 1 1.594-1.594z"></path></symbol><symbol id="icon-cart" viewBox="0 0 24 24" preserveAspectRatio="xMidYMid slice"><path d="M9.375 20.25a1.875 1.875 0 1 1-3.75 0 1.875 1.875 0 0 1 3.75 0m7.875-1.875a1.875 1.875 0 1 0 0 3.75 1.875 1.875 0 0 0 0-3.75m4.825-11.294-2.558 8.316a2.614 2.614 0 0 1-2.51 1.853H7.775a2.637 2.637 0 0 1-2.525-1.904L2.045 4.125h-.92a1.125 1.125 0 0 1 0-2.25h1.202a1.882 1.882 0 0 1 1.803 1.36l.683 2.39H21a1.125 1.125 0 0 1 1.075 1.456m-2.598.794H5.455l1.959 6.853a.375.375 0 0 0 .36.272h9.233a.375.375 0 0 0 .36-.264z"></path></symbol><symbol id="icon-facebook" viewBox="0 0 8 13" preserveAspectRatio="xMidYMid slice"><path d="M2.709 12.304V6.75H.839V4.586h1.87V2.99C2.709 1.138 3.84.129 5.492.129c.792 0 1.472.059 1.67.085V2.15H6.016c-.898 0-1.072.427-1.072 1.054v1.382h2.143l-.28 2.164H4.945v5.554z"></path></symbol><symbol id="icon-filter" viewBox="0 0 24 24" preserveAspectRatio="xMidYMid slice"><path d="M13.125 11.625v8.625a1.125 1.125 0 1 1-2.25 0v-8.625a1.125 1.125 0 1 1 2.25 0M18.75 18a1.125 1.125 0 0 0-1.125 1.125v1.125a1.125 1.125 0 1 0 2.25 0v-1.125A1.125 1.125 0 0 0 18.75 18M21 14.25h-1.125V3.75a1.125 1.125 0 1 0-2.25 0v10.5H16.5a1.125 1.125 0 1 0 0 2.25H21a1.125 1.125 0 1 0 0-2.25M5.25 15a1.125 1.125 0 0 0-1.125 1.125v4.125a1.125 1.125 0 0 0 2.25 0v-4.125A1.125 1.125 0 0 0 5.25 15m2.25-3.75H6.375v-7.5a1.125 1.125 0 0 0-2.25 0v7.5H3a1.125 1.125 0 1 0 0 2.25h4.5a1.125 1.125 0 1 0 0-2.25m6.75-4.5h-1.125v-3a1.125 1.125 0 1 0-2.25 0v3H9.75a1.125 1.125 0 0 0 0 2.25h4.5a1.125 1.125 0 0 0 0-2.25"></path></symbol><symbol id="icon-github" viewBox="0 0 14 13" preserveAspectRatio="xMidYMid slice"><path d="M6.607.227a6.464 6.464 0 0 0-6.48 6.48c0 2.861 1.863 5.291 4.428 6.155.324.054.432-.135.432-.324v-1.107c-1.81.405-2.187-.864-2.187-.864-.297-.756-.73-.945-.73-.945-.593-.405.055-.405.055-.405.648.054.999.675.999.675.567 1 1.512.702 1.89.54.054-.432.216-.702.405-.864-1.431-.162-2.943-.729-2.943-3.213 0-.702.243-1.296.675-1.728-.054-.162-.297-.81.054-1.727 0 0 .54-.162 1.782.675a6.506 6.506 0 0 1 1.62-.216c.54 0 1.107.08 1.62.216 1.242-.837 1.782-.675 1.782-.675.35.89.135 1.538.054 1.727.405.46.675 1.026.675 1.728 0 2.484-1.512 3.024-2.97 3.186.243.19.432.594.432 1.188v1.782c0 .162.108.378.459.324a6.448 6.448 0 0 0 4.428-6.129c0-3.59-2.89-6.48-6.48-6.48"></path></symbol><symbol id="icon-insta" viewBox="0 0 14 14" preserveAspectRatio="xMidYMid slice"><path d="M7 1.447c1.81 0 2.024.007 2.738.04.43.005.855.084 1.258.233a2.244 2.244 0 0 1 1.286 1.286c.15.403.228.828.233 1.258.032.714.04.928.04 2.737 0 1.809-.007 2.023-.04 2.738a3.76 3.76 0 0 1-.233 1.258 2.243 2.243 0 0 1-1.286 1.285c-.403.15-.828.228-1.258.234-.714.032-.928.039-2.737.039-1.81 0-2.023-.007-2.738-.04a3.759 3.759 0 0 1-1.258-.233 2.244 2.244 0 0 1-1.286-1.285 3.758 3.758 0 0 1-.233-1.258c-.032-.715-.04-.93-.04-2.738 0-1.809.008-2.023.04-2.737.006-.43.084-.855.233-1.258A2.243 2.243 0 0 1 3.005 1.72c.403-.15.829-.228 1.258-.233.715-.033.93-.04 2.738-.04m0-1.22c-1.838 0-2.07.007-2.792.04a4.974 4.974 0 0 0-1.645.315c-.452.17-.861.437-1.2.782a3.318 3.318 0 0 0-.782 1.2 4.973 4.973 0 0 0-.314 1.644c-.033.722-.04.954-.04 2.793 0 1.838.007 2.07.04 2.793.011.562.118 1.118.315 1.645.17.452.437.861.782 1.2.338.344.747.611 1.2.781a4.971 4.971 0 0 0 1.644.315c.723.032.954.04 2.793.04 1.84 0 2.07-.007 2.793-.04a4.972 4.972 0 0 0 1.646-.315 3.468 3.468 0 0 0 1.98-1.982 4.974 4.974 0 0 0 .315-1.645c.032-.722.04-.954.04-2.792 0-1.839-.008-2.07-.04-2.793a4.974 4.974 0 0 0-.316-1.645 3.32 3.32 0 0 0-.781-1.2 3.319 3.319 0 0 0-1.2-.782A4.974 4.974 0 0 0 9.793.267c-.722-.033-.954-.04-2.792-.04"></path><path d="M7.002 3.523a3.479 3.479 0 1 0 0 6.958 3.479 3.479 0 0 0 0-6.958m0 5.737a2.258 2.258 0 1 1 0-4.516 2.258 2.258 0 0 1 0 4.516M10.618 4.198a.813.813 0 1 0 0-1.626.813.813 0 0 0 0 1.626"></path></symbol><symbol id="icon-twitter" viewBox="0 0 12 10" preserveAspectRatio="xMidYMid slice"><path d="M11.207 1.983a5.102 5.102 0 0 1-1.327.373c.466-.28.838-.722 1.001-1.257a5.045 5.045 0 0 1-1.466.558A2.32 2.32 0 0 0 7.739.936a2.285 2.285 0 0 0-2.282 2.28c0 .187.023.35.07.513A6.522 6.522 0 0 1 .801 1.331C.615 1.681.5 2.053.5 2.472c0 .791.396 1.49 1.024 1.909A2.694 2.694 0 0 1 .476 4.1v.024a2.3 2.3 0 0 0 1.839 2.258c-.187.046-.396.07-.606.07-.14 0-.302-.024-.442-.047.303.908 1.14 1.583 2.142 1.583a4.658 4.658 0 0 1-2.84.978c-.187 0-.373 0-.536-.023a6.478 6.478 0 0 0 3.515 1.024c4.214 0 6.518-3.492 6.518-6.518v-.303a4.18 4.18 0 0 0 1.141-1.164"></path></symbol><symbol id="icon-user" viewBox="0 0 24 24" preserveAspectRatio="xMidYMid slice"><path d="M12 1.875A10.125 10.125 0 1 0 22.125 12 10.137 10.137 0 0 0 12 1.875M7.46 18.428a5.625 5.625 0 0 1 9.08 0 7.848 7.848 0 0 1-9.08 0m1.915-7.178a2.625 2.625 0 1 1 5.25 0 2.625 2.625 0 0 1-5.25 0m8.813 5.62a7.827 7.827 0 0 0-2.72-2.196 4.875 4.875 0 1 0-6.937 0 7.827 7.827 0 0 0-2.719 2.195 7.875 7.875 0 1 1 12.366 0z"></path></symbol></svg>